<mxfile host="app.diagrams.net" modified="2023-11-21T15:45:39.828Z" agent="Mozilla/5.0 (Windows NT 10.0; Win64; x64) AppleWebKit/537.36 (KHTML, like Gecko) Chrome/116.0.0.0 Safari/537.36 OPR/102.0.0.0 (Edition std-1)" version="22.1.3" etag="uds73f2SRdDWdfoIUX4I" type="github">
  <diagram name="PÃ¡gina-1" id="EguZV-reT-yt1hFtbRoc">
    <mxGraphModel>
      <root>
        <mxCell id="0" />
        <mxCell id="1" parent="0" />
      </root>
    </mxGraphModel>
  </diagram>
</mxfile>
